<svg width="512" height="512" viewBox="0 0 135.467 135.467" xmlns="http://www.w3.org/2000/svg"><path fill="currentColor" d="M113.193 26.042a108.417 108.417 0 0 0-26.697-8.287.41.41 0 0 0-.428.204c-1.155 2.05-2.435 4.73-3.327 6.828a99.917 99.917 0 0 0-29.984 0 67.688 67.688 0 0 0-3.377-6.828.418.418 0 0 0-.427-.204 107.68 107.68 0 0 0-26.697 8.287.336.336 0 0 0-.186.149C5.07 51.592.406 76.37 2.693 100.838c.01.114.093.229.186.303a108.819 108.819 0 0 0 32.746 16.557.41.41 0 0 0 .458-.155 77.989 77.989 0 0 0 6.705-10.893.41.41 0 0 0-.093-.483.418.418 0 0 0-.155-.09 72.745 72.745 0 0 1-10.23-4.877.41.41 0 0 1-.154-.541.418.418 0 0 1 .124-.155 58.065 58.065 0 0 0 2.032-1.598.41.41 0 0 1 .418-.06c21.467 9.804 44.705 9.804 65.91 0a.426.426 0 0 1 .433.06c.657.54 1.345 1.082 2.033 1.598a.418.418 0 0 1-.031.697 67.655 67.655 0 0 1-10.238 4.868.41.41 0 0 0-.248.245.426.426 0 0 0 .025.336 87.15 87.15 0 0 0 6.697 10.894.41.41 0 0 0 .458.155 108.483 108.483 0 0 0 32.795-16.558.402.402 0 0 0 .186-.303c2.738-28.287-4.582-52.86-19.394-74.639a.279.279 0 0 0-.154-.155zM45.996 85.935C39.53 85.935 34.21 80 34.21 72.722c0-7.287 5.221-13.221 11.786-13.221 6.615 0 11.885 5.983 11.787 13.22 0 7.28-5.221 13.214-11.787 13.214zm43.574 0c-6.46 0-11.787-5.935-11.787-13.213 0-7.287 5.221-13.221 11.787-13.221 6.614 0 11.893 5.983 11.787 13.22 0 7.28-5.173 13.214-11.787 13.214z" style="stroke-width:8.19664"/></svg>