<svg width="512" height="512" viewBox="0 0 135.467 135.467" xmlns="http://www.w3.org/2000/svg"><path fill-rule="evenodd" clip-rule="evenodd" d="M67.733 1.671C30.311 1.671 0 31.981 0 69.404c0 29.973 19.389 55.288 46.313 64.263 3.386.592 4.656-1.44 4.656-3.218 0-1.608-.084-6.942-.084-12.615-17.018 3.133-21.42-4.149-22.776-7.959-.762-1.947-4.064-7.958-6.942-9.567-2.371-1.27-5.758-4.403-.085-4.487 5.334-.085 9.144 4.91 10.414 6.942 6.096 10.245 15.833 7.366 19.727 5.588.593-4.402 2.371-7.366 4.318-9.06-15.07-1.692-30.818-7.534-30.818-33.443 0-7.366 2.624-13.462 6.942-18.203-.677-1.693-3.048-8.636.678-17.95 0 0 5.672-1.777 18.626 6.943 5.42-1.524 11.176-2.286 16.934-2.286 5.757 0 11.515.762 16.933 2.286 12.954-8.805 18.627-6.942 18.627-6.942 3.725 9.313 1.355 16.256.677 17.95 4.318 4.74 6.943 10.752 6.943 18.202 0 25.993-15.833 31.75-30.903 33.444 2.455 2.117 4.572 6.18 4.572 12.53 0 9.06-.085 16.341-.085 18.627 0 1.778 1.27 3.895 4.657 3.218 26.754-8.975 46.143-34.375 46.143-64.263 0-37.422-30.31-67.733-67.734-67.733Z" fill="currentColor" style="stroke-width:8.4667"/></svg>