<svg width="512" height="512" viewBox="0 0 135.467 135.467" xmlns="http://www.w3.org/2000/svg"><path fill="currentColor" d="M67.733.529c-18.237 0-20.53.082-27.696.403-7.166.336-12.047 1.462-16.323 3.125a32.905 32.905 0 0 0-11.903 7.754 32.99 32.99 0 0 0-7.754 11.903C2.393 27.982 1.26 32.871.933 40.011.612 47.194.529 49.48.529 67.741c0 18.247.096 20.532.404 27.697.336 7.158 1.46 12.038 3.124 16.314 1.72 4.419 4.016 8.166 7.754 11.904 3.73 3.738 7.476 6.04 11.895 7.754 4.284 1.663 9.157 2.797 16.314 3.125 7.174.319 9.459.403 27.713.403 18.255 0 20.531-.083 27.705-.403 7.15-.336 12.047-1.462 16.323-3.125a32.897 32.897 0 0 0 11.895-7.754c3.738-3.738 6.032-7.485 7.754-11.904 1.654-4.276 2.788-9.156 3.124-16.314.32-7.165.403-9.45.403-27.705 0-18.254-.095-20.54-.403-27.713-.336-7.15-1.47-12.038-3.124-16.306a32.98 32.98 0 0 0-7.754-11.903 32.855 32.855 0 0 0-11.904-7.754C107.468 2.393 102.58 1.259 95.43.932 88.256.612 85.98.529 67.717.529h.025zM61.71 12.642h6.032c17.943 0 20.069.06 27.15.387 6.553.295 10.115 1.394 12.484 2.31 3.134 1.218 5.376 2.68 7.728 5.032 2.353 2.352 3.806 4.587 5.024 7.728.924 2.361 2.016 5.923 2.311 12.475.327 7.082.394 9.207.394 27.142 0 17.936-.064 20.07-.394 27.151-.286 6.553-1.394 10.106-2.311 12.475a20.75 20.75 0 0 1-5.032 7.72c-2.353 2.352-4.587 3.806-7.729 5.024-2.352.924-5.914 2.016-12.475 2.318-7.081.32-9.207.395-27.15.395-17.944 0-20.078-.076-27.16-.395-6.552-.301-10.105-1.394-12.474-2.318a20.817 20.817 0 0 1-7.729-5.024 20.833 20.833 0 0 1-5.04-7.728c-.914-2.361-2.016-5.923-2.311-12.475-.321-7.082-.388-9.207-.388-27.16 0-17.943.064-20.06.388-27.142.317-6.552 1.393-10.114 2.317-12.483 1.22-3.133 2.68-5.376 5.032-7.728 2.353-2.352 4.587-3.806 7.729-5.024 2.369-.924 5.922-2.016 12.475-2.319 6.2-.285 8.602-.37 21.127-.378zm41.902 11.156a8.065 8.065 0 1 0 0 16.13 8.065 8.065 0 0 0 0-16.13zm-35.87 9.426a34.518 34.518 0 1 0 0 69.027 34.518 34.518 0 0 0 0-69.027zm0 12.105a22.404 22.404 0 1 1 0 44.809 22.404 22.404 0 0 1 0-44.809z" style="stroke-width:8.40057"/></svg>