<svg width="512" height="512" viewBox="0 0 135.467 135.467" xmlns="http://www.w3.org/2000/svg"><path fill="currentColor" class="cls-1" d="M27.78 1.751A27.858 27.138 0 0 0 0 28.813v77.838a27.858 27.138 0 0 0 27.78 27.064h79.904a27.858 27.138 0 0 0 27.783-27.064V28.813a27.858 27.138 0 0 0-27.783-27.062Zm13.098 35.064a7.32 7.13 0 0 1 7.32 7.13 7.331 7.142 0 1 1-7.32-7.13zm-7.332 19.029H48.2V98.65H33.546Zm24.42 0H71.48v6.745h.177c1.885-3.286 6.481-6.745 13.35-6.745 14.254 0 16.9 8.646 16.9 19.89v22.917H87.83V78.344c0-4.844-.1-11.084-7.353-11.084-7.254 0-8.456 5.273-8.456 10.74V98.65H57.966z" style="fill-rule:evenodd;stroke-width:1.08808"/></svg>