<svg width="512" height="512" viewBox="0 0 135.467 135.467" xmlns="http://www.w3.org/2000/svg"><path fill="currentColor" style="fill-opacity:1;fill-rule:nonzero;stroke:none;stroke-width:.0255514" d="M67.733 0C30.327 0 0 30.327 0 67.733c0 37.406 30.327 67.734 67.733 67.734 37.406 0 67.734-30.328 67.734-67.734C135.467 30.327 105.147 0 67.733 0Zm2.121 27.094c1.058 0 2.018.43 2.707 1.134a3.89 3.89 0 0 1 1.12 2.735v6.57l.794.221c.062.021.125.05.18.091.195.146.474.362.829.627.278.222.577.494.94.772a56.799 56.799 0 0 1 2.511 2.178c.25.216.495.438.717.661 1.211 1.127 2.568 2.45 3.862 3.911.362.41.717.828 1.079 1.267.362.445.745.883 1.079 1.322.438.584.911 1.19 1.322 1.823.195.3.418.606.605.905.53.8.996 1.628 1.441 2.456.188.383.382.8.55 1.211a17.696 17.696 0 0 1 1.134 3.361c.076.244.132.508.16.745v.056c.083.334.111.689.139 1.05a11.25 11.25 0 0 1-.195 3.473c-.104.494-.243.96-.41 1.454-.167.474-.334.968-.55 1.434a19.426 19.426 0 0 1-1.496 2.839c-.188.334-.41.689-.634 1.023-.243.355-.494.689-.716 1.016a21.31 21.31 0 0 1-.968 1.246c-.299.41-.605.82-.94 1.183-.465.55-.91 1.072-1.377 1.573-.278.327-.578.66-.884.96-.299.334-.605.633-.884.911-.466.467-.855.829-1.183 1.128l-.765.703a.625.625 0 0 1-.41.153h-5.93v7.606h7.46c1.67 0 3.257-.592 4.538-1.677.438-.383 2.352-2.039 4.613-4.537a.58.58 0 0 1 .286-.174l20.605-5.957a.608.608 0 0 1 .773.585v4.363c0 .25-.154.473-.376.57-1.364.585-6.034 2.728-7.975 5.428-4.955 6.897-8.74 16.757-17.203 16.757H51.1c-12.512 0-22.65-10.174-22.65-22.728v-.403c0-.334.27-.606.604-.606h19.68c.39 0 .676.362.64.745a6.717 6.717 0 0 0 .704 3.779 6.924 6.924 0 0 0 6.207 3.855h9.743v-7.606h-9.632c-.494 0-.786-.571-.5-.975.104-.16.222-.327.347-.515.912-1.294 2.213-3.305 3.507-5.594.884-1.545 1.74-3.195 2.43-4.85.138-.3.25-.606.361-.905.188-.53.383-1.024.522-1.517.14-.418.25-.856.362-1.267.327-1.406.466-2.895.466-4.44 0-.605-.028-1.239-.083-1.844-.028-.661-.112-1.322-.195-1.984a20.552 20.552 0 0 0-.272-1.767c-.139-.884-.334-1.76-.557-2.644l-.076-.334c-.167-.606-.306-1.183-.5-1.789a67.481 67.481 0 0 0-1.852-5.484c-.244-.689-.522-1.35-.8-2.01-.41-.996-.829-1.9-1.211-2.757-.195-.39-.362-.744-.53-1.106a39.34 39.34 0 0 0-.577-1.21c-.14-.3-.3-.579-.41-.857l-1.19-2.199a.388.388 0 0 1 .438-.563l7.446 2.017h.021c.014 0 .021.007.028.007l.981.272 1.079.306.397.112v-4.426c0-2.137 1.712-3.87 3.827-3.87zM51.882 41.708a.593.593 0 0 1 .505.354c2.943 6.597 5.484 14.802 4.294 19.91-.508 2.102-1.9 4.948-3.466 7.578-.202.383-.424.759-.661 1.12a.6.6 0 0 1-.501.265H33.932a.601.601 0 0 1-.515-.926l.292-.459 17.62-27.564a.599.599 0 0 1 .553-.278z"/></svg>