<svg width="512" height="512" viewBox="0 0 135.467 135.467" xmlns="http://www.w3.org/2000/svg"><path fill="currentColor" d="M127.853 12.48c-4.624.076-11.757 2.545-45.976 16.729-11.984 4.974-35.955 15.255-71.88 30.85-5.819 2.303-8.865 4.596-9.152 6.806-.478 3.73 4.23 5.184 10.622 7.195l2.712.836c6.284 2.042 14.746 4.435 19.137 4.527 4.002.092 8.47-1.54 13.388-4.916 33.568-22.58 50.885-33.993 51.962-34.239.717-.179 1.852-.37 2.557.275.717.633.598 1.837.598 2.16-.478 1.979-18.897 19.04-28.434 27.882-2.975 2.763-5.078 4.71-5.508 5.157a125.613 125.167 0 0 1-2.915 2.848c-5.854 5.618-10.215 9.822.239 16.7 5.042 3.315 9.068 6.052 13.089 8.784a933.47 933.47 0 0 0 14.411 9.653 106.04 106.04 0 0 1 4.182 2.849c5.102 3.622 9.69 6.878 15.345 6.356 3.297-.31 6.702-3.351 8.423-12.562 4.086-21.752 12.112-68.877 13.96-88.295a21.968 21.89 0 0 0-.238-4.827 5.192 5.173 0 0 0-1.745-3.327 8.103 8.074 0 0 0-4.779-1.44z" style="stroke-width:31.6119"/></svg>