<svg width="512" height="512" viewBox="0 0 135.467 135.467" xmlns="http://www.w3.org/2000/svg"><path fill="currentColor" d="M121.542 40.141c.086 1.204.086 2.407.086 3.61 0 36.704-27.936 78.994-78.994 78.994-15.73 0-30.342-4.556-42.634-12.463 2.235.257 4.384.343 6.705.343 12.979 0 24.927-4.383 34.468-11.861-12.206-.258-22.434-8.252-25.959-19.255 1.72.258 3.439.43 5.244.43 2.492 0 4.985-.344 7.306-.945C15.043 76.414 5.501 65.24 5.501 51.745v-.343a27.961 27.961 0 0 0 12.55 3.524C10.572 49.94 5.673 41.43 5.673 31.804c0-5.158 1.375-9.885 3.782-14.011 13.667 16.847 34.21 27.85 57.247 29.053-.43-2.063-.688-4.212-.688-6.36 0-15.301 12.378-27.764 27.764-27.764a27.697 27.697 0 0 1 20.285 8.767 54.662 54.662 0 0 0 17.621-6.704c-2.063 6.446-6.446 11.862-12.205 15.3 5.587-.602 11.002-2.15 15.987-4.298a59.681 59.681 0 0 1-13.924 14.354z" style="stroke-width:.264583"/></svg>