<svg width="512" height="512" viewBox="0 0 135.467 135.467" xmlns="http://www.w3.org/2000/svg"><path fill="currentColor" d="M131.687 33.362c.924-3.094 0-5.384-4.42-5.384h-14.664c-3.737 0-5.424 1.969-6.389 4.138 0 0-7.432 18.16-17.999 29.972-3.415 3.416-4.982 4.5-6.83 4.5-.924 0-2.33-1.084-2.33-4.178V33.402c0-3.737-1.045-5.384-4.138-5.384H51.895c-2.33 0-3.736 1.728-3.736 3.375 0 3.536 5.263 4.34 5.825 14.263v21.575c0 4.741-.844 5.585-2.732 5.585-4.982 0-17.035-18.24-24.227-39.133-1.406-4.058-2.812-5.705-6.549-5.705H5.812c-4.179 0-5.022 1.969-5.022 4.138 0 3.897 4.982 23.142 23.142 48.574C36.025 98.087 53.1 107.49 68.609 107.49c9.32 0 10.446-2.09 10.446-5.706V88.646c0-4.179.884-5.023 3.817-5.023 2.17 0 5.906 1.085 14.584 9.482 9.924 9.924 11.57 14.384 17.156 14.384h14.664c4.179 0 6.268-2.09 5.063-6.228-1.326-4.098-6.067-10.084-12.375-17.155-3.415-4.018-8.518-8.397-10.085-10.567-2.17-2.812-1.566-4.018 0-6.509 0 0 17.84-25.15 19.727-33.668z" style="stroke-width:.0401771"/></svg>