<svg width="512" height="512" viewBox="0 0 135.467 135.467" xmlns="http://www.w3.org/2000/svg"><path fill="currentColor" class="cls-1" d="M67.728 20.06s-28.445 0-47.409 1.378c-2.646.32-8.413.343-13.572 5.745-4.102 4.102-5.401 13.44-5.401 13.44A206.338 206.338 0 0 0 0 62.562v10.263a206.89 206.89 0 0 0 1.346 21.94s1.322 9.34 5.368 13.496c5.16 5.402 11.93 5.226 14.962 5.799 10.838 1.036 46.063 1.346 46.063 1.346s28.478 0 47.408-1.4c2.657-.32 8.424-.354 13.584-5.745 4.068-4.101 5.392-13.45 5.392-13.45a206.338 206.338 0 0 0 1.344-21.94V62.55a208.664 208.664 0 0 0-1.379-21.938l.014.012s-1.324-9.338-5.403-13.44c-5.149-5.39-10.927-5.425-13.573-5.744-18.941-1.378-47.398-1.378-47.398-1.378ZM53.705 47.216 90.297 66.31 53.705 85.285Z" style="fill-rule:evenodd;stroke-width:1.10253"/></svg>